<svg id="Layer_2" data-name="Layer 2" xmlns="http://www.w3.org/2000/svg" viewBox="0 0 512 512"><defs><style>.cls-1{fill:#fdbd11;}.cls-2{font-size:62.544px;font-family:ArialMT, Arial;}.cls-2,.cls-4{fill:#fff;}.cls-3{fill:#e8ad10;}</style></defs><path class="cls-1" d="M179.62,79.809H336.082A23.319,23.319,0,0,1,359.4,103.128v19.289a0,0,0,0,1,0,0H156.3a0,0,0,0,1,0,0V103.128A23.319,23.319,0,0,1,179.62,79.809Z"/><path class="cls-1" d="M156.3,372.86H359.4a0,0,0,0,1,0,0v19.289a23.319,23.319,0,0,1-23.319,23.319H179.62A23.319,23.319,0,0,1,156.3,392.149V372.86A0,0,0,0,1,156.3,372.86Z"/><rect class="cls-1" x="156.301" y="130.465" width="203.1" height="234.82"/><text class="cls-2" transform="translate(184.704 203.29)">&lt;/&gt;</text><rect class="cls-3" x="204.886" y="236.276" width="75.619" height="5.681" rx="2.043"/><rect class="cls-3" x="204.886" y="265.747" width="75.619" height="5.681" rx="2.043"/><rect class="cls-3" x="204.886" y="292.377" width="122.499" height="5.681" rx="2.043"/><rect class="cls-3" x="204.886" y="319.007" width="122.499" height="5.681" rx="2.043"/><rect class="cls-4" x="193.987" y="233.909" width="81.903" height="5.681" rx="2.043"/><rect class="cls-4" x="193.987" y="262.906" width="81.903" height="5.681" rx="2.043"/><rect class="cls-4" x="193.987" y="289.537" width="127.895" height="5.681" rx="2.043"/><rect class="cls-4" x="193.395" y="316.167" width="127.895" height="5.681" rx="2.043"/></svg>