<svg id="Layer_1" data-name="Layer 1" xmlns="http://www.w3.org/2000/svg" viewBox="0 0 512 512"><defs><style>.cls-1{fill:#fdbd11;}</style></defs><path id="Shape" class="cls-1" d="M280.57,141.5,262,151.48l-18.57-10.006a5.269,5.269,0,1,0-4.993,9.279l18.3,9.865v12.64a5.267,5.267,0,0,0,10.534,0v-12.64l18.3-9.833a5.269,5.269,0,1,0-4.993-9.28Z"/><path id="Shape-2" data-name="Shape" class="cls-1" d="M335.733,194.325V120.591a5.265,5.265,0,0,0-2.565-4.519c-.068-.042-.147-.058-.221-.094L264.481,79.111a5.267,5.267,0,0,0-4.993,0l-68.467,36.867c-.074.036-.153.052-.221.094a5.268,5.268,0,0,0-2.533,4.519v73.734a5.267,5.267,0,0,0,2.77,4.634L259.5,235.826a5.265,5.265,0,0,0,4.992,0l68.467-36.867A5.267,5.267,0,0,0,335.733,194.325Zm-10.533-3.16-57.933,31.21V204.858a5.267,5.267,0,0,0-10.534,0v17.517L198.8,191.165V129.4l13.3,7.152a5.268,5.268,0,1,0,4.992-9.279l-12.445-6.684L262,89.707l57.349,30.884L306.9,127.28a5.269,5.269,0,1,0,4.992,9.28l13.3-7.158Z"/><path id="Shape-3" data-name="Shape" class="cls-1" d="M365.753,216.655,388.4,209.9a5.267,5.267,0,1,0-3.013-10.091l-35.328,10.534a5.267,5.267,0,0,0-3.54,6.551l10.534,35.329a5.267,5.267,0,0,0,5.045,3.761,5.378,5.378,0,0,0,1.507-.216,5.267,5.267,0,0,0,3.539-6.557l-7.052-23.653c31.436,17.27,49.375,41.654,49.375,67.577,0,50.059-66.155,90.787-147.467,90.787S114.533,343.2,114.533,293.138c0-25.87,17.96-50.281,49.4-67.556l-7.047,23.632a5.267,5.267,0,0,0,3.539,6.557,5.371,5.371,0,0,0,1.506.216,5.268,5.268,0,0,0,5.046-3.761L177.512,216.9a5.266,5.266,0,0,0-3.539-6.551l-35.329-10.534a5.267,5.267,0,0,0-3.012,10.091l22.646,6.757C123.729,235.831,104,263.45,104,293.138c0,55.869,70.879,101.32,158,101.32s158-45.451,158-101.32c0-29.736-19.692-57.312-54.247-76.483Z"/><path id="Shape-4" data-name="Shape" class="cls-1" d="M214.6,252.258a21.034,21.034,0,0,0-20.013,14.409,5.272,5.272,0,1,0,10.006,3.324A10.533,10.533,0,1,1,214.6,283.858a5.267,5.267,0,1,0,0,10.533,10.533,10.533,0,1,1-10.007,13.867,5.272,5.272,0,1,0-10.006,3.324,21.067,21.067,0,1,0,33.933-22.457,21.067,21.067,0,0,0-13.92-36.867Z"/><path id="Shape-5" data-name="Shape" class="cls-1" d="M262,325.991a23.865,23.865,0,0,0,0-47.4,18.83,18.83,0,0,0-6.989,1.443,28.965,28.965,0,0,1,14.41-17.706,5.267,5.267,0,1,0-4.308-9.607c-23.906,10.729-24.18,45.462-24.18,46.937a5.226,5.226,0,0,0,.164.811c-.043.611-.164,1.2-.164,1.822A22.526,22.526,0,0,0,262,325.991Zm0-36.866a13.5,13.5,0,0,1,0,26.333,13.5,13.5,0,0,1,0-26.333Z"/><path id="Shape-6" data-name="Shape" class="cls-1" d="M288.333,273.325v31.6a21.067,21.067,0,0,0,42.134,0v-31.6a21.067,21.067,0,0,0-42.134,0Zm31.6,0v31.6a10.533,10.533,0,0,1-21.066,0v-31.6a10.533,10.533,0,1,1,21.066,0Z"/></svg>