<svg id="Layer_2" data-name="Layer 2" xmlns="http://www.w3.org/2000/svg" viewBox="0 0 512 512"><defs><style>.cls-1{fill:#f5c21d;}</style></defs><path class="cls-1" d="M504.256,118.256c-.036-.216-.028-.444-.084-.656a6.995,6.995,0,0,0-.684-1.668,5.4727,5.4727,0,0,0-.372-.492,6.9532,6.9532,0,0,0-.728-.952c-.164-.168-.372-.284-.552-.436a6.8963,6.8963,0,0,0-.856-.672l-.052-.02-.044-.032L442.4,79.82a7.0039,7.0039,0,0,0-6.96,0l-58.516,33.504-.044.032-.052.02a6.9,6.9,0,0,0-.86.676,5.018,5.018,0,0,0-.548.432,6.9424,6.9424,0,0,0-.736.964c-.116.168-.264.308-.364.484a7.0132,7.0132,0,0,0-.684,1.668c-.056.204-.048.424-.084.632a6.8729,6.8729,0,0,0-.152,1.164v14.26l-52.044-32.592A6.8479,6.8479,0,0,0,321.5,100V41.496a6.8779,6.8779,0,0,0-.152-1.144c-.036-.216-.028-.444-.084-.656a6.9928,6.9928,0,0,0-.684-1.664,7.0871,7.0871,0,0,0-.452-.6,6.9312,6.9312,0,0,0-.644-.844,7.1334,7.1334,0,0,0-.664-.52,6.8826,6.8826,0,0,0-.752-.588h-.04L318,35.42,259.48,1.916a7.0039,7.0039,0,0,0-6.96,0L194,35.42l-.048.036h-.04a6.8792,6.8792,0,0,0-.756.592,7.1289,7.1289,0,0,0-.66.516,6.9466,6.9466,0,0,0-.652.856,7.0846,7.0846,0,0,0-.444.588,6.995,6.995,0,0,0-.684,1.668c-.056.204-.048.424-.084.632a6.8729,6.8729,0,0,0-.152,1.164V100a6.85,6.85,0,0,0,.144,1.068l-52.032,32.588V119.4a6.8779,6.8779,0,0,0-.152-1.144c-.036-.216-.028-.444-.084-.656a6.995,6.995,0,0,0-.684-1.668,5.4727,5.4727,0,0,0-.372-.492,6.9532,6.9532,0,0,0-.728-.952c-.164-.168-.372-.284-.552-.436a6.8889,6.8889,0,0,0-.856-.672l-.052-.02-.044-.032L76.576,79.82a7.0039,7.0039,0,0,0-6.96,0L11.112,113.324l-.044.032-.052.02a6.9,6.9,0,0,0-.86.676,5.018,5.018,0,0,0-.548.432,6.9347,6.9347,0,0,0-.736.964c-.116.168-.264.308-.364.484a7.0132,7.0132,0,0,0-.684,1.668c-.056.204-.048.424-.084.632a6.8729,6.8729,0,0,0-.152,1.164V177.9a7,7,0,0,0,3.644,6.144L66.092,214v80.152L11.112,325.64l-.044.032-.052.02a6.9,6.9,0,0,0-.86.676,5.018,5.018,0,0,0-.548.432,6.9406,6.9406,0,0,0-.736.964c-.116.168-.264.308-.364.484a7.0149,7.0149,0,0,0-.684,1.668c-.056.204-.048.424-.084.632a6.8729,6.8729,0,0,0-.152,1.164v58.504a7,7,0,0,0,3.652,6.144l58.5,31.932a6.8929,6.8929,0,0,0,1.02.4,5.9066,5.9066,0,0,0,.556.216,6.7693,6.7693,0,0,0,3.556,0c.192-.052.368-.152.556-.216a6.8972,6.8972,0,0,0,1.02-.4l49.672-27.116,64.4,42.876v29.012a7,7,0,0,0,3.644,6.144l58.5,31.932a6.8929,6.8929,0,0,0,1.02.4,5.9066,5.9066,0,0,0,.556.216,6.7672,6.7672,0,0,0,3.556,0c.192-.052.368-.152.556-.216a6.8972,6.8972,0,0,0,1.02-.4l58.484-31.94a7,7,0,0,0,3.644-6.144V444.044l64.4-42.876,49.672,27.116a6.8929,6.8929,0,0,0,1.02.4,5.9066,5.9066,0,0,0,.556.216,6.7693,6.7693,0,0,0,3.556,0c.192-.052.368-.152.556-.216a6.9015,6.9015,0,0,0,1.02-.4l58.48-31.924a7,7,0,0,0,3.644-6.144v-58.5a6.8674,6.8674,0,0,0-.152-1.144c-.036-.216-.028-.444-.084-.656a6.995,6.995,0,0,0-.684-1.668,5.4727,5.4727,0,0,0-.372-.492,6.9532,6.9532,0,0,0-.728-.952c-.164-.168-.372-.284-.552-.436a6.8775,6.8775,0,0,0-.856-.672l-.052-.02-.044-.032L445.9,294.156V214l54.856-29.944a7,7,0,0,0,3.644-6.144V119.4A6.8816,6.8816,0,0,0,504.256,118.256ZM298.368,415.396,256,438.524l-42.368-23.128-1.792-.98L256,389.128,300.16,414.4ZM124.592,173.748l-44.5,24.288V155.488l44.5-24.288Zm-51.5,132.528,44.16,25.288-1.792.98L73.092,355.672,30.724,332.544l-1.792-.98Zm57.912,17.032-50.912-29.16V214l46.376-25.316L190.5,230.348V281.42ZM204.5,95.844V53.296L249,77.6v42.536Zm103,0L263,120.136V77.6l44.5-24.296ZM256,201.112,300.16,226.4l-1.792.98L256,250.508,213.632,227.38l-1.792-.98Zm-51.5,37.236L249,262.64V305.2l-44.5-24.3ZM263,262.64l44.5-24.292V280.9L263,305.2Zm58.5-32.292,64.032-41.676L431.908,214v80.152l-50.912,29.16L321.5,281.42Zm110.4-74.86v42.548l-44.492-24.288V131.2ZM387.408,386.064V343.512l44.5,24.292v42.548Zm93.868-53.52-42.368,23.128-42.372-23.128-1.792-.98,44.16-25.288,44.16,25.288ZM438.908,93.96l44.16,25.288-1.792.98-42.368,23.128-42.372-23.128-1.792-.98Zm-65.256,85.736-59.384,38.652L263,188.988v-52.9l46.96-25.64,63.444,39.728v27.72A6.9825,6.9825,0,0,0,373.652,179.696ZM256,16.06l44.156,25.292L257.936,64.4,256,65.456,254.064,64.4l-42.22-23.052Zm-53.96,94.4L249,136.1v52.888l-51.268,29.36-59.384-38.652a6.98,6.98,0,0,0,.244-1.8v-27.72ZM73.092,93.96l44.16,25.288-1.792.98L73.092,143.356,30.724,120.228l-1.792-.98ZM21.6,131.2l44.5,24.292v42.544L21.6,173.748Zm0,212.316,44.5,24.292v42.548L21.6,386.064Zm58.5,24.292,44.5-24.292v42.548L80.1,410.352ZM138.204,392.4a6.9331,6.9331,0,0,0,.4-2.188v-55.12l59.364-41.808L249,321.14v55.864l-55,31.488-.044.032-.052.02a6.9,6.9,0,0,0-.86.676,5.018,5.018,0,0,0-.548.432,6.9406,6.9406,0,0,0-.736.964c-.116.168-.264.308-.364.484a7.0149,7.0149,0,0,0-.684,1.668c-.056.204-.048.424-.084.632a6.8729,6.8729,0,0,0-.152,1.164v12.664ZM204.5,440.268V426.36L249,450.652V493.2l-44.5-24.288ZM263,493.2V450.656l44.5-24.292v42.552Zm58.5-78.636a6.8779,6.8779,0,0,0-.152-1.144c-.036-.216-.028-.444-.084-.656a6.995,6.995,0,0,0-.684-1.668,5.4727,5.4727,0,0,0-.372-.492,6.9532,6.9532,0,0,0-.728-.952c-.164-.168-.372-.284-.552-.436a6.8963,6.8963,0,0,0-.856-.672l-.052-.02-.044-.032L263,377.004V321.14l51.032-27.856,59.376,41.808v55.124a6.93,6.93,0,0,0,.4,2.188l-52.296,34.828Zm124.4-4.216V367.804l44.5-24.292v42.552Zm0-212.316V155.488L490.4,131.2v42.548Z"/></svg>