<svg id="Layer_2" data-name="Layer 2" xmlns="http://www.w3.org/2000/svg" viewBox="0 0 512 512"><defs><style>.cls-1{fill:#f5c21d;}</style></defs><path class="cls-1" d="M411.23,170.0545c-.0225-.135-.0175-.2776-.0525-.41a4.3764,4.3764,0,0,0-.4277-1.0429,3.4276,3.4276,0,0,0-.2326-.3077,4.3673,4.3673,0,0,0-.4552-.5953c-.1026-.105-.2327-.1775-.3452-.2726a4.3239,4.3239,0,0,0-.5352-.42l-.0326-.0125-.0275-.02-36.5694-20.9522a4.3794,4.3794,0,0,0-4.352,0l-36.5894,20.95-.0275.02-.0326.0125a4.3252,4.3252,0,0,0-.5377.4227,3.1637,3.1637,0,0,0-.3427.27,4.3633,4.3633,0,0,0-.46.6028c-.0725.1051-.165.1926-.2276.3027a4.3864,4.3864,0,0,0-.4277,1.0429c-.035.1276-.03.2652-.0525.3952a4.3,4.3,0,0,0-.0951.7279v8.9166l-32.5425-20.3794a4.2746,4.2746,0,0,0,.09-.6653v-36.582a4.2894,4.2894,0,0,0-.095-.7153c-.0225-.1351-.0175-.2776-.0525-.41a4.3775,4.3775,0,0,0-.4277-1.04,4.4226,4.4226,0,0,0-.2827-.3751,4.3222,4.3222,0,0,0-.4027-.5278,4.4582,4.4582,0,0,0-.4151-.3251,4.3024,4.3024,0,0,0-.47-.3677h-.025l-.0175-.0375-36.5919-20.95a4.3794,4.3794,0,0,0-4.352,0l-36.5919,20.95-.03.0225h-.0251a4.2962,4.2962,0,0,0-.4727.37,4.4739,4.4739,0,0,0-.4127.3226,4.34,4.34,0,0,0-.4076.5353,3.0928,3.0928,0,0,0-.7054,1.4106c-.035.1276-.03.2651-.0525.3952a4.29,4.29,0,0,0-.095.7278v36.597a4.2805,4.2805,0,0,0,.09.6678l-32.535,20.3769V170.77a4.3,4.3,0,0,0-.0951-.7154c-.0225-.135-.0175-.2776-.0525-.41a4.3754,4.3754,0,0,0-.4277-1.043,3.4276,3.4276,0,0,0-.2326-.3077,4.3443,4.3443,0,0,0-.4552-.5952c-.1026-.1051-.2326-.1776-.3452-.2727a4.3164,4.3164,0,0,0-.5352-.42l-.0326-.0125-.0275-.02-36.5744-20.9522a4.3794,4.3794,0,0,0-4.352,0l-36.5819,20.95-.0275.02-.0325.0125a4.3188,4.3188,0,0,0-.5378.4227,3.1637,3.1637,0,0,0-.3427.27,4.3358,4.3358,0,0,0-.46.6028c-.0725.1051-.165.1926-.2276.3027a4.3864,4.3864,0,0,0-.4277,1.0429c-.035.1276-.03.2652-.0525.3952a4.29,4.29,0,0,0-.095.7279v36.5819a4.377,4.377,0,0,0,2.2785,3.8418l34.3034,18.7311V280.04L102.8727,299.73l-.0275.02-.0325.0125a4.3188,4.3188,0,0,0-.5378.4227,3.1523,3.1523,0,0,0-.3427.27,4.3486,4.3486,0,0,0-.46.6027c-.0725.1051-.165.1926-.2276.3027a4.3871,4.3871,0,0,0-.4277,1.043c-.035.1275-.03.2651-.0525.3951a4.29,4.29,0,0,0-.095.7279v36.5819a4.3768,4.3768,0,0,0,2.2835,3.8418l36.5794,19.9667a4.3073,4.3073,0,0,0,.6378.25,3.6752,3.6752,0,0,0,.3477.1351,4.2338,4.2338,0,0,0,2.2235,0c.12-.0325.23-.0951.3477-.1351a4.3073,4.3073,0,0,0,.6378-.25l31.0593-16.9553,40.2687,26.81v18.1409a4.3768,4.3768,0,0,0,2.2785,3.8417l36.5794,19.9668a4.3139,4.3139,0,0,0,.6378.25,3.7024,3.7024,0,0,0,.3477.1351,4.2317,4.2317,0,0,0,2.2235,0c.12-.0326.23-.0951.3477-.1351a4.3183,4.3183,0,0,0,.6378-.25l36.5694-19.9718a4.3768,4.3768,0,0,0,2.2785-3.8417V373.7663l40.2687-26.81,31.0593,16.9553a4.3073,4.3073,0,0,0,.6378.25,3.7024,3.7024,0,0,0,.3477.1351,4.2338,4.2338,0,0,0,2.2235,0c.12-.0325.23-.0951.3477-.1351a4.3183,4.3183,0,0,0,.6378-.25L409.0443,343.95a4.3772,4.3772,0,0,0,2.2785-3.8418V303.5288a4.2891,4.2891,0,0,0-.095-.7154c-.0225-.1351-.0175-.2776-.0526-.41a4.3744,4.3744,0,0,0-.4276-1.043,3.4227,3.4227,0,0,0-.2327-.3076,4.3452,4.3452,0,0,0-.4552-.5953c-.1025-.105-.2326-.1776-.3451-.2726a4.2986,4.2986,0,0,0-.5353-.42l-.0325-.0125-.0275-.02-34.3784-19.6891V229.9222l34.3009-18.7236a4.3772,4.3772,0,0,0,2.2785-3.8418V170.77A4.2947,4.2947,0,0,0,411.23,170.0545ZM282.4908,355.853l-26.4923,14.4616L229.5062,355.853l-1.12-.6128,27.6128-15.8123L283.6113,355.23Zm-108.66-151.1L146.0051,219.94V193.3353l27.8254-15.187Zm-32.2024,82.8683,27.6128,15.8123-1.1205.6128-26.4923,14.4617-26.4922-14.4617-1.1206-.6128Zm36.2118,10.65-31.8348-18.2334V229.9222l28.9984-15.83,40.0386,26.0521v31.9347Zm45.9562-142.2307V129.4358l27.8254,15.197V171.23Zm64.4048,0L260.3755,171.23V144.6328l27.8254-15.192Zm-32.2024,65.8229,27.6128,15.8123-1.1205.6128L255.9985,252.75l-26.4923-14.4617-1.12-.6128Zm-32.2024,23.2833,27.8254,15.1895v26.6123l-27.8254-15.1945Zm36.5794,15.1895,27.8254-15.1895v26.6073l-27.8254,15.1945Zm36.5794-20.1918,40.0385-26.06,28.9985,15.8373V280.04l-31.8348,18.2334-37.2022-26.1946Zm69.032-46.8092V219.94l-27.82-15.187V178.1483Zm-27.82,144.1767V310.9047l27.8254,15.19V352.699Zm58.6946-33.4655-26.4922,14.4617-26.4948-14.4617-1.12-.6128,27.6128-15.8123,27.6128,15.8123Zm-26.4922-149.184,27.6128,15.8123-1.1206.6128-26.4922,14.4617-26.4948-14.4617-1.12-.6128Zm-40.8039,53.61L292.4328,232.641l-32.0573-18.3585V181.2047l29.3636-16.0324L329.41,190.0138v17.333a4.368,4.368,0,0,0,.1551,1.1255Zm-73.5665-102.32,27.61,15.8148-26.4,14.4117-1.2106.66-1.2106-.66-26.4-14.4142ZM222.2579,165.18l29.3636,16.0324v33.07L219.5641,232.641,182.432,208.4723a4.3665,4.3665,0,0,0,.1525-1.1255v-17.333Zm-80.63-10.3173,27.6128,15.8123-1.1205.6128-26.4923,14.4617-26.4922-14.4617-1.1206-.6128Zm-32.1974,23.2858,27.8254,15.1895V219.94l-27.8254-15.187Zm0,132.7589,27.8254,15.19v26.6048l-27.8254-15.19Zm36.5794,15.19,27.8254-15.19V337.512L146.01,352.699Zm36.3318,15.3771a4.334,4.334,0,0,0,.25-1.3681V305.64l37.12-26.1421,31.91,17.418v34.9312L217.2306,351.536l-.0275.02-.0326.0125a4.3158,4.3158,0,0,0-.5377.4227,3.1322,3.1322,0,0,0-.3427.27,4.3358,4.3358,0,0,0-.46.6028c-.0725.1051-.1651.1926-.2276.3026a4.3888,4.3888,0,0,0-.4277,1.043c-.035.1276-.03.2652-.0525.3952a4.3,4.3,0,0,0-.0951.7278v7.9187Zm41.4542,29.9314v-8.6966l27.8254,15.19V404.503l-27.8254-15.187Zm36.5794,33.0978V377.9007l27.8254-15.19v26.6074Zm36.5794-49.17a4.2894,4.2894,0,0,0-.095-.7153c-.0225-.1351-.0175-.2776-.0525-.41a4.3788,4.3788,0,0,0-.4277-1.043,3.4405,3.4405,0,0,0-.2326-.3076,4.3539,4.3539,0,0,0-.4553-.5953c-.1025-.105-.2326-.1776-.3451-.2726a4.306,4.306,0,0,0-.5353-.42l-.0325-.0125-.0275-.02-34.3759-19.6891V296.9157l31.91-17.418L329.4125,305.64v34.4684a4.3312,4.3312,0,0,0,.25,1.3681l-32.7,21.7776Zm77.786-2.6362V326.0942l27.8254-15.19V337.512Zm0-132.7589V193.3353l27.8254-15.187v26.6048Z"/></svg>