<svg id="Layer_1" data-name="Layer 1" xmlns="http://www.w3.org/2000/svg" viewBox="0 0 512 512"><defs><style>.cls-1{fill:#aeadb3;}.cls-2{fill:#fedb41;}.cls-3{fill:#fea832;}.cls-4{fill:#d9d9d9;}</style></defs><path class="cls-1" d="M256,410.956a44.725,44.725,0,0,1-32.1821-13.6774A46.0269,46.0269,0,0,1,210.59,364.94a9.0821,9.0821,0,0,1,18.1641,0c0,15.0965,12.476,27.8516,27.2461,27.8516s27.2461-12.7551,27.2461-27.8516a9.0821,9.0821,0,0,1,18.1641,0,46.0269,46.0269,0,0,1-13.2281,32.3382A44.725,44.725,0,0,1,256,410.956Z"/><path class="cls-2" d="M310.4922,337.6943H201.5078a9.0813,9.0813,0,0,1-9.082-9.082,70.7642,70.7642,0,0,0-17.9016-46.3657c-23.275-26.1652-32.3854-61.1665-24.9921-96.0306a108.4637,108.4637,0,0,1,83.058-82.8144c32.9224-6.8778,66.49,1.1092,92.0975,21.92a108.9,108.9,0,0,1,13.3179,156.3245c-11.8847,13.5615-18.4313,30.24-18.4313,46.9664A9.0813,9.0813,0,0,1,310.4922,337.6943ZM210.0932,319.53h91.816a91.0656,91.0656,0,0,1,22.4378-49.8566,90.7392,90.7392,0,0,0-11.1136-130.2562c-21.3452-17.3434-49.3836-23.9917-76.9277-18.235-34.0576,7.1166-61.7885,34.7648-69.0045,68.8011-6.1824,29.1571,1.3978,58.3852,20.7941,80.1915A89.7654,89.7654,0,0,1,210.0932,319.53Z"/><path class="cls-3" d="M319.5742,219.0225a9.0814,9.0814,0,0,1-9.082-9.0821,54.56,54.56,0,0,0-54.5017-54.4922,9.082,9.082,0,1,1,0-18.164A72.7437,72.7437,0,0,1,328.6562,209.94,9.0814,9.0814,0,0,1,319.5742,219.0225Z"/><path class="cls-4" d="M292.3281,374.0225H219.6719a27.2774,27.2774,0,0,1-27.2461-27.2461V328.6123a9.0813,9.0813,0,0,1,9.082-9.082H310.4922a9.0813,9.0813,0,0,1,9.082,9.082v18.1641A27.2774,27.2774,0,0,1,292.3281,374.0225ZM210.59,337.6943v9.0821a9.0935,9.0935,0,0,0,9.0821,9.082h72.6562a9.0935,9.0935,0,0,0,9.0821-9.082v-9.0821Z"/><path class="cls-3" d="M128.2461,228.1045H110.082a9.0821,9.0821,0,0,1,0-18.1641h18.1641a9.0821,9.0821,0,0,1,0,18.1641Z"/><path class="cls-3" d="M125.5853,180.0336a9.05,9.05,0,0,1-6.4212-2.6608L106.3191,164.53a9.0828,9.0828,0,1,1,12.845-12.845L132.009,164.53a9.0821,9.0821,0,0,1-6.4237,15.5033Z"/><path class="cls-3" d="M112.7428,289.0179a9.082,9.082,0,0,1-6.4213-15.5033L119.1641,260.67a9.0827,9.0827,0,1,1,12.8449,12.8449l-12.8449,12.8426A9.0549,9.0549,0,0,1,112.7428,289.0179Z"/><path class="cls-3" d="M401.918,228.1045H383.7539a9.0821,9.0821,0,0,1,0-18.1641H401.918a9.0821,9.0821,0,0,1,0,18.1641Z"/><path class="cls-3" d="M386.4147,180.0336a9.0821,9.0821,0,0,1-6.4213-15.5033l12.8425-12.845a9.0828,9.0828,0,1,1,12.845,12.845l-12.845,12.8425A9.0542,9.0542,0,0,1,386.4147,180.0336Z"/><path class="cls-3" d="M399.2572,289.0179a9.0508,9.0508,0,0,1-6.4213-2.6607L379.991,273.5146A9.0827,9.0827,0,0,1,392.8359,260.67l12.845,12.8449a9.082,9.082,0,0,1-6.4237,15.5033Z"/></svg>