<svg id="Layer_1" data-name="Layer 1" xmlns="http://www.w3.org/2000/svg" viewBox="0 0 536.265 108.696"><defs><style>.cls-1{fill:#f9bb18;}.cls-2{fill:#fff;}</style></defs><path class="cls-1" d="M431.5,495.108q10.185,9.456,10.186,29.045t-10.464,28.669q-10.464,9.077-31.944,9.077H386.389v29.5h-21.62V485.652H399Q421.311,485.652,431.5,495.108Zm-15.869,41.6q3.879-4.765,3.881-13.919t-5.058-13.01q-5.061-3.859-15.73-3.858H386.389v35.552H400.94Q411.751,541.476,415.63,536.711Z" transform="translate(-272.221 -485.652)"/><path class="cls-2" d="M489.588,507.526a21.831,21.831,0,1,1-37.442-15.537,22.413,22.413,0,0,1,31.227,0A21.329,21.329,0,0,1,489.588,507.526Zm-32.072,0a12.317,12.317,0,0,0,2.877,8.456,9.942,9.942,0,0,0,14.732,0A12.317,12.317,0,0,0,478,507.526a12.467,12.467,0,0,0-2.877-8.5,9.861,9.861,0,0,0-14.732,0A12.467,12.467,0,0,0,457.516,507.526Z" transform="translate(-272.221 -485.652)"/><path class="cls-2" d="M606.489,510.475a21.831,21.831,0,1,1-37.443-15.538,22.416,22.416,0,0,1,31.227,0A21.332,21.332,0,0,1,606.489,510.475Zm-32.073,0a12.313,12.313,0,0,0,2.878,8.456,9.94,9.94,0,0,0,14.731,0,12.318,12.318,0,0,0,2.878-8.456,12.467,12.467,0,0,0-2.878-8.5,9.86,9.86,0,0,0-14.731,0A12.462,12.462,0,0,0,574.416,510.475Z" transform="translate(-272.221 -485.652)"/><path class="cls-1" d="M691.729,488.605h23.6V594.348h-23.6l-50.375-66.259v66.259h-23.6V488.605h22.086l51.888,68.075Z" transform="translate(-272.221 -485.652)"/><path class="cls-2" d="M483.189,541.128q5.805,4.936,5.806,15.164t-5.964,14.967Q477.069,576,464.826,576h-7.345v15.4H445.16V536.191h19.508Q477.383,536.191,483.189,541.128Zm-9.043,21.72q2.209-2.488,2.211-7.267t-2.882-6.792q-2.885-2.014-8.965-2.014h-7.029v18.561h8.293Q471.934,565.336,474.146,562.848Z" transform="translate(-272.221 -485.652)"/><path class="cls-1" d="M529.01,550.325a22.444,22.444,0,0,0,18.328-8.871l9.749,10.041q-11.6,13.065-27.346,13.064t-25.933-9.944q-10.188-9.944-10.187-25.1T504,504.213a34.975,34.975,0,0,1,25.4-10.139q16.767,0,28.077,12.77l-9.457,10.724q-7.215-8.967-17.938-8.968a20.907,20.907,0,0,0-14.672,5.605q-6.094,5.608-6.093,15.112t5.752,15.256A18.978,18.978,0,0,0,529.01,550.325Z" transform="translate(-272.221 -485.652)"/><path class="cls-2" d="M607.357,556.529q0,12.545-9.931,16.2L610.642,591.4H596.306l-11.574-16.651h-8.064V591.4H565.02V539.206h19.787q12.169,0,17.361,4.107T607.357,556.529Zm-14.038,6.2q2.166-1.94,2.166-6.16t-2.24-5.786q-2.241-1.569-7.841-1.569h-8.736v15.457h8.512Q591.153,564.668,593.319,562.726Z" transform="translate(-272.221 -485.652)"/><path class="cls-2" d="M808.485,527.586v23.886L723.749,591.4V565.6l55.969-26.5-55.969-25.8V487.657Z" transform="translate(-272.221 -485.652)"/><path class="cls-2" d="M272.221,526.583v23.886L356.957,590.4v-25.8l-55.969-26.5,55.969-25.8V486.655Z" transform="translate(-272.221 -485.652)"/><rect class="cls-1" x="220.915" y="89.506" width="64.825" height="16.241"/><path class="cls-1" d="M550.864,576.538l-.219.219a2.572,2.572,0,0,0,0,3.536l.506.391a2.487,2.487,0,0,0,1.262.341l.665-.089a2.5,2.5,0,0,0,1.1-.643l.219-.219a2.572,2.572,0,0,0,0-3.536l-.506-.391a2.487,2.487,0,0,0-1.262-.341l-.664.089a2.5,2.5,0,0,0-1.1.643Z" transform="translate(-272.221 -485.652)"/></svg>