<svg id="Layer_1" data-name="Layer 1" xmlns="http://www.w3.org/2000/svg" viewBox="0 0 429.397 481.979"><defs><style>.cls-1{fill:#f9bb18;}</style></defs><path class="cls-1" d="M563.885,676.52c10.71,9.569,22.32,17.368,30.2,27.946,4.769,6.4,3.482,17.17,5.462,25.852,1.036,4.547,3.251,8.826,4.934,13.225,3.858-3.09,9.4-5.394,11.276-9.411,7.188-15.409,1.144-34.173-14.612-48.324-11.365-10.207-23.912-19.285-34.186-30.471-12.574-13.69-18.621-30.1-12.245-49.908,6.974,5.415,12.391,10.866,18.9,14.16,3.337,1.689,8.625-.476,13.031-.9-.785-3.9-1.345-7.869-2.476-11.668-.412-1.383-2.09-2.478-3.352-3.506-17.1-13.939-23.823-30.79-14.563-52.063,8.646-19.86,30.665-34.6,52.247-32.566,9.632.905,14.612-2.228,20.627-8.7,25.259-27.192,72.742-29.521,95.891-5.349,21.106,22.039,22.66,56.506,3.45,80.85-4.389,5.561-10.184,10.156-13.809,16.121-2.081,3.423-1.1,8.707-1.5,13.153,4.452-.465,9.51.235,13.2-1.69,4.562-2.379,7.986-6.938,12.1-10.739,17.507,37.015-5.69,90.54-38.406,105.6-13.852,6.376-27.979,5.605-40.171-3.9-11.077-8.632-11.4-21.006-6.478-32.83,6.453-15.515,14.131-30.534,21.606-45.606,7.519-15.162,14.989-32.541,3.554-46.33-12.047-14.528-16.7-28.8-16.371-46.748.072-3.93-6.8-7.989-10.466-11.988-2.053,4.813-6.129,9.777-5.786,14.413,1.084,14.647.15,26.409-19.006,25.69A8.821,8.821,0,0,0,631,563.342c-5.228,5.426-15.408,13.5-14.137,16.464,5.075,11.843,13.383,2.783,20.064-.329,11.763-5.48,23.042-7.208,33.111,2.868,9.484,9.491,5.771,20.058,1.424,30.36-8.96,21.234-22.554,29.969-45.837,29.6-2.181-.034-4.708-1.112-6.468-.334-4.438,1.961-8.529,4.7-12.759,7.136,4.073,3.371,7.776,8.875,12.3,9.659,8.882,1.539,18.219.453,28.844.453-9.824,31.15-4.861,57.428,36.105,69.756-22.065,16.312-40.1,33.077-61.138,44.149-17.957,9.45-36.428.926-50.167-13.657-13.145-13.952-14.747-29.99-9-48.515C566.4,701.117,563.885,689.551,563.885,676.52Z" transform="translate(-325.073 -295.125)"/><path class="cls-1" d="M383.573,374.986c10.354,18.056,19.981,35.512,30.391,52.488,2.362,3.853,7.072,7.027,11.4,8.64,2.819,1.051,9.25-.45,9.9-2.284,1.166-3.288.363-8.493-1.687-11.471-5.852-8.5-13.2-15.962-19.147-24.4-20.47-29.059-13.114-73.278,31.46-76.655,3.118-.236,6.588-3.1,8.894-5.652,19.816-21.9,45.421-26.6,65.1-11.661,21.342,16.2,24.827,43.212,8.875,68.761-1.153,1.847-2.268,3.718-3.994,6.551,14.533,21.328,18.87,43.259.414,65.617-1.758,2.13,1.537,8.467,2.544,12.837,2.513,10.915,6.863,21.785,7.09,32.743.233,11.21-4.866,21.771-18.465,23.207-13.884,1.465-26.606-3.152-29.439-17.358-3.023-15.16-2.367-31.209-2.035-46.843.415-19.609,3.442-39.223,2.956-58.776-.591-23.784-16.628-41.2-35.945-41.285-4.059-.018-8.132,3.189-12.2,4.909,2.945,3.727,5.315,9.912,8.933,10.757,16.158,3.775,20.789,15.1,20.359,29.24-.779,25.613-.747,51.456-4.387,76.723C460,503,482.218,534.592,517.663,531.689c1.492-.122,3.065.751.484.063,4.968,13.24,8.039,24.294,13.1,34.348,13.4,26.639,8.866,52.338-1.909,79.268-25.8-12.021-47.4-25.512-50.509-57.231-.642-6.559-9.3-15.013-16.2-17.811-29.046-11.773-38.839-32.208-27.471-61.543,2.288-5.906,10.52-13.727-.808-16.876-4.06-1.129-14.131,6.337-15.665,11.576-4.769,16.285-14.023,14.976-26.2,10.363-24.376-9.235-34.258-27.37-28.767-52.491.958-4.382.146-9.6-1.264-13.977C353.075,418.3,360.867,392.636,383.573,374.986Z" transform="translate(-325.073 -295.125)"/><path class="cls-1" d="M354.394,679.314c9,.947,17.18,2.977,25.087,2.207,4.862-.474,9.307-5.227,13.94-8.058-4.333-3-8.464-8.216-13.032-8.633-22.006-2.008-41.777-8.686-49.973-30.546-4.33-11.549-2.335-25.47-.38-39.226,21,26.112,49.037,37.486,76.932,49.919,7.987,3.56,16.569,14.6,17.321,22.9.65,7.173-8.943,15.712-14.9,22.91-4.841,5.852-19.875,4.732-13.552,17.1,1.295,2.532,15.943.871,22.641-2.464,26.032-12.958,52.445-3.13,63.59,24.068,2.195,5.356,8.473,9.04,12.868,13.5,1.131-6.745,3.945-13.765,2.9-20.157-.982-6.023-6.92-11.065-9.081-17.109-3.568-9.975-5.433-20.551-8.837-30.6-1.979-5.841-5.558-11.14-8.417-16.683-3.109,5.414-6.683,10.629-9.124,16.329-1.172,2.736-.2,6.39-.2,11.484l-18.892-5.31c1.424-29.69-8.527-45.489-36.215-55.513-23.095-8.361-43-20.96-59.583-39-26.691-29.032-30.176-73.378-7.063-102.74,9.509,36.131,36.279,48.5,70.5,51.792,1.718,7.13,3.46,14.354,5.289,21.946-12.871,9.18-24.874,2.651-37.335-.481-5.257-1.321-11.426.989-17.18,1.648,3.789,5,6.91,13.471,11.489,14.349,15.116,2.9,30.76,3.038,46.2,4.268,5.551.443,11.178.529,16.624,1.553,18.324,3.446,26.606,14.093,30.945,33.06,4.95,21.641,23.922,33.771,43.3,44.122,28.456,15.2,41.614,47.12,32.879,76.285-6.794,22.684-28.771,42.031-52.274,43.416-24.776,1.459-44.461-7.438-55.566-31.778-1.532-3.359-10.523-5.655-15.4-4.777C382.309,745.859,350.1,717.872,354.394,679.314Z" transform="translate(-325.073 -295.125)"/><path class="cls-1" d="M743.826,487.932c-41.828-24.67-76.553-22.185-113.92,7.307-2.524,1.992-5.212,4.14-8.185,5.142-21.162,7.132-42.418,13.984-64.215,21.113-4.089-8.977-5.38-79.741,2.282-89.837A256.211,256.211,0,0,1,593.2,396.172c15.313-13.7,27.294-28.646,25.691-50.267-.306-4.128-5.767-7.874-8.849-11.8-3.142,3.277-9.176,6.753-8.966,9.8,1.616,23.433-13.874,35.237-29.825,47.28-5.987,4.52-11.092,10.211-16.726,15.487-1-1.3-2.175-2.259-2.007-2.686,7.331-18.574,4.17-37.235,2.749-56.47-1.863-25.21,18.553-45.74,46.094-51.426,23.733-4.9,51.312,9.272,62.425,32.078,10.272,21.082,3.927,47.25-15.819,63.1-19.8,15.9-44.3,27.359-52.074,54.448-1.479,5.155.137,11.2.325,16.831,5.04-3.438,11.211-5.957,14.9-10.494,9.307-11.456,17.5-23.82,26.135-35.82l5.694,1.787c2.985,7.267,5.331,14.9,9.208,21.655,2.162,3.767,6.871,6.071,10.433,9.035,1.916-4.516,6.064-9.456,5.3-13.461-1.794-9.42-5.933-18.393-9.128-27.561l24.755-32.916c15.625,9.923,22.825,25.114,25.037,43.88.579,4.914,3.647,11.559,7.593,13.723C741.225,446.139,747.324,457.143,743.826,487.932Z" transform="translate(-325.073 -295.125)"/></svg>