<svg id="Layer_1" data-name="Layer 1" xmlns="http://www.w3.org/2000/svg" viewBox="0 0 1080 1080"><defs><style>.cls-1{fill:#fff;}.cls-2{fill:#fdbd11;}</style></defs><path class="cls-1" d="M558.424,231.6H848V848H231.6V231.6H519.974v81.318h38.45ZM539.372,790.437q33.029,0,66.058,0c16.181-.015,23.472-7.259,23.518-23.441.05-17.816.135-35.633-.083-53.446-.048-3.931,1.2-6.084,4.611-8.02,19.514-11.084,36.142-25.6,50.709-42.667,53.848-63.092,59.5-159.434,11.237-227.035-46.439-65.051-110.483-92.094-189.641-79.8-43.392,6.738-79.653,28.174-108.5,61.335-38.053,43.744-53.389,94.968-44.924,152.04,8.857,59.71,40.4,105.2,92.747,135.779,3.488,2.039,4.446,4.328,4.41,8.116q-.255,27.321-.048,54.647c.09,15.022,7.642,22.461,22.645,22.489Q505.742,790.486,539.372,790.437Zm-.169,56.337v.021c18.618,0,37.236.075,55.853-.03,10.243-.058,17.741-5.78,19.994-14.861,3.335-13.445-6.319-24.422-21.8-24.459q-54.052-.128-108.1.051a30.16,30.16,0,0,0-10.538,1.811,19.026,19.026,0,0,0-11.639,20.845c1.679,9.69,9.123,16.441,19.183,16.558C501.165,846.931,520.185,846.774,539.2,846.774ZM311.231,333.851l55.506,57.5,26.633-25.671L337.984,308.2Zm373.488,31.834,26.9,25.969,55.863-57.608-27-26ZM315.181,517.937H234.053v38.534h81.128Zm448.044,38.65h81.134V518.066H763.225Z"/><rect class="cls-2" x="519.974" y="231.6" width="38.45" height="81.318" rx="18.31"/><path class="cls-2" d="M539.372,790.436q-33.63,0-67.26-.01c-15-.028-22.555-7.467-22.645-22.489q-.165-27.323.048-54.647c.036-3.788-.922-6.077-4.41-8.116-52.344-30.582-83.89-76.069-92.747-135.779-8.465-57.072,6.871-108.3,44.924-152.04,28.846-33.161,65.107-54.6,108.5-61.335,79.158-12.291,143.2,14.752,189.641,79.8,48.259,67.6,42.611,163.943-11.237,227.035-14.567,17.068-31.195,31.583-50.709,42.667-3.408,1.936-4.659,4.089-4.611,8.02.218,17.813.133,35.63.083,53.446-.046,16.182-7.337,23.426-23.518,23.441Q572.4,790.462,539.372,790.436Zm50.253-39.585c0-17.242.306-33.838-.106-50.416-.284-11.434,4.645-18.632,14.669-23.8a165.007,165.007,0,0,0,26.42-16.439c74.538-58.6,78.692-166.448,8.043-229.821-42.07-37.738-91.729-47.5-145.5-30.882-59.027,18.247-100.686,72.971-103.378,134.561-1.985,45.415,13.5,83.879,45.778,115.652a128.9,128.9,0,0,0,37.894,26.074c11.116,4.968,15.881,12.912,15.448,25.042-.521,14.6-.123,29.226-.123,43.841v6.191Z"/><path class="cls-2" d="M539.2,846.774c-19.018,0-38.038.157-57.053-.064-10.06-.117-17.5-6.868-19.183-16.558a19.026,19.026,0,0,1,11.639-20.845,30.16,30.16,0,0,1,10.538-1.811q54.051-.19,108.1-.051c15.484.037,25.138,11.014,21.8,24.459-2.253,9.081-9.751,14.8-19.994,14.861-18.617.105-37.235.03-55.853.03Z"/><path class="cls-2" d="M324.491,321.136l.309-.3a18.309,18.309,0,0,1,25.857.512L380.669,352.5a18.31,18.31,0,0,1-.479,25.887l-.279.269a18.311,18.311,0,0,1-25.881-.466l-30.04-31.122A18.309,18.309,0,0,1,324.491,321.136Z"/><path class="cls-2" d="M697.465,352.51q15.219-15.732,30.322-31.341a18.3,18.3,0,0,1,25.854-.454l.606.584a18.316,18.316,0,0,1,.442,25.944l-30.353,31.3a18.3,18.3,0,0,1-25.856.423l-.572-.552A18.309,18.309,0,0,1,697.465,352.51Z"/><rect class="cls-2" x="234.053" y="517.937" width="81.128" height="38.534" rx="18.31"/><rect class="cls-2" x="763.225" y="518.066" width="81.134" height="38.521" rx="18.31"/><path class="cls-1" d="M589.625,750.851H488.774V744.66c0-14.615-.4-29.245.123-43.841.433-12.13-4.332-20.074-15.448-25.042A128.9,128.9,0,0,1,435.555,649.7c-32.279-31.773-47.763-70.237-45.778-115.652,2.692-61.59,44.351-116.314,103.378-134.561,53.767-16.622,103.426-6.856,145.5,30.882,70.649,63.373,66.5,171.221-8.043,229.821a165.007,165.007,0,0,1-26.42,16.439c-10.024,5.171-14.953,12.369-14.669,23.8C589.931,717.013,589.625,733.609,589.625,750.851Z"/></svg>