<svg id="Layer_1" data-name="Layer 1" xmlns="http://www.w3.org/2000/svg" viewBox="0 0 1080 1080"><defs><style>.cls-1{font-size:28.7667px;font-family:Montserrat-Bold, Montserrat;font-weight:700;}.cls-1,.cls-30{fill:#f9ba17;}.cls-2{letter-spacing:-0.004em;}.cls-3{letter-spacing:-0.005em;}.cls-4{letter-spacing:-0.006em;}.cls-5{letter-spacing:-0.014em;}.cls-6{letter-spacing:0em;}.cls-7{font-size:21.4752px;font-family:KayakSans, Kayak Sans;}.cls-32,.cls-49,.cls-7{fill:#fff;}.cls-8{letter-spacing:0.0376em;}.cls-9{letter-spacing:-0.0503em;}.cls-10{letter-spacing:-0.0444em;}.cls-11{letter-spacing:0em;}.cls-12{letter-spacing:-0.0425em;}.cls-13{letter-spacing:0em;}.cls-14{letter-spacing:-0.0854em;}.cls-15{letter-spacing:-0.0362em;}.cls-16{letter-spacing:0.0264em;}.cls-17{letter-spacing:-0.0562em;}.cls-18{letter-spacing:-0.0688em;}.cls-19{letter-spacing:-0.0273em;}.cls-20{letter-spacing:-0.0703em;}.cls-21{letter-spacing:0.0264em;}.cls-22{letter-spacing:0.0254em;}.cls-23{letter-spacing:-0.0899em;}.cls-24{letter-spacing:-0.0537em;}.cls-25{letter-spacing:-0.0342em;}.cls-26{letter-spacing:-0.0312em;}.cls-27{letter-spacing:0.0581em;}.cls-28{letter-spacing:-0.0503em;}.cls-29{letter-spacing:-0.0391em;}.cls-30{font-size:29.5634px;}.cls-30,.cls-32,.cls-49{font-family:Montserrat-Regular, Montserrat;}.cls-31{letter-spacing:-0.006em;}.cls-32{font-size:20.0166px;}.cls-33{letter-spacing:0.0263em;}.cls-34{letter-spacing:-0.006em;}.cls-35{letter-spacing:0em;}.cls-36{letter-spacing:-0.007em;}.cls-37{letter-spacing:-0.009em;}.cls-38{letter-spacing:0em;}.cls-39{letter-spacing:-0.0713em;}.cls-40{letter-spacing:-0.0649em;}.cls-41{letter-spacing:-0.0538em;}.cls-42{letter-spacing:0.0254em;}.cls-43{letter-spacing:-0.0561em;}.cls-44{letter-spacing:-0.0313em;}.cls-45{letter-spacing:-0.0469em;}.cls-46{letter-spacing:-0.023em;}.cls-47{letter-spacing:0.0278em;}.cls-48{letter-spacing:0.0376em;}.cls-49{font-size:12px;}.cls-50{letter-spacing:-0.015em;}</style></defs><text class="cls-1" transform="translate(578.2227 142.9932)">Regi<tspan class="cls-2" x="66.2773" y="0">s</tspan><tspan x="81.1211" y="0">t</tspan><tspan class="cls-3" x="93.7783" y="0">r</tspan><tspan class="cls-4" x="105.457" y="0">a</tspan><tspan x="122.3721" y="0">tion </tspan><tspan class="cls-5" x="188.0742" y="0">S</tspan><tspan class="cls-6" x="206.0244" y="0">tarts</tspan></text><text class="cls-7" transform="translate(580.6963 183.9346)"><tspan class="cls-8">I</tspan><tspan class="cls-9" x="4.1631" y="0">n</tspan><tspan class="cls-10" x="13.3271" y="0">v</tspan><tspan class="cls-11" x="23.2998" y="0">i</tspan><tspan class="cls-12" x="26.875" y="0">t</tspan><tspan class="cls-13" x="32.3906" y="0">e </tspan><tspan class="cls-14" x="48.8115" y="0">f</tspan><tspan class="cls-15" x="54.5898" y="0">r</tspan><tspan x="59.9375" y="0">iends </tspan><tspan class="cls-16" x="110.6787" y="0">a</tspan><tspan x="122.3389" y="0">nd d</tspan><tspan class="cls-17" x="160.0996" y="0">e</tspan><tspan class="cls-18" x="169.9873" y="0">v</tspan><tspan class="cls-11" x="179.4355" y="0">s, </tspan><tspan class="cls-19" x="197.1875" y="0">c</tspan><tspan class="cls-20" x="207.0869" y="0">r</tspan><tspan class="cls-13" x="211.7002" y="0">ea</tspan><tspan class="cls-12" x="233.8887" y="0">t</tspan><tspan x="239.4043" y="0">e a </tspan><tspan class="cls-12" x="272.2461" y="0">t</tspan><tspan x="277.7617" y="0">e</tspan><tspan class="cls-21" x="288.8555" y="0">a</tspan><tspan x="300.5166" y="0">m,</tspan><tspan class="cls-16" x="0" y="25.77">a</tspan><tspan x="11.6602" y="25.77">nd put on yo</tspan><tspan class="cls-16" x="119.4766" y="25.77">u</tspan><tspan class="cls-11" x="130.2881" y="25.77">r </tspan><tspan class="cls-16" x="141.7383" y="25.77">a</tspan><tspan class="cls-13" x="153.3984" y="25.77">p</tspan><tspan class="cls-20" x="164.4932" y="25.77">r</tspan><tspan x="169.1064" y="25.77">ons </tspan><tspan class="cls-12" x="205.1777" y="25.77">t</tspan><tspan class="cls-13" x="210.6934" y="25.77">o m</tspan><tspan class="cls-22" x="244.2588" y="25.77">a</tspan><tspan class="cls-23" x="255.8984" y="25.77">k</tspan><tspan class="cls-13" x="264.2031" y="25.77">e pop</tspan><tspan class="cls-24" x="313.9063" y="25.77">c</tspan><tspan x="323.2393" y="25.77">o</tspan><tspan class="cls-25" x="334.333" y="25.77">r</tspan><tspan x="339.7227" y="25.77">n</tspan><tspan class="cls-26" x="0" y="51.5405">w</tspan><tspan class="cls-11" x="15.4775" y="51.5405">h</tspan><tspan class="cls-27" x="25.7217" y="51.5405">i</tspan><tspan x="30.5459" y="51.5405">le yo</tspan><tspan class="cls-16" x="71.7129" y="51.5405">u</tspan><tspan x="82.5244" y="51.5405">r pc </tspan><tspan class="cls-28" x="120.8818" y="51.5405">s</tspan><tspan class="cls-12" x="129.208" y="51.5405">t</tspan><tspan class="cls-16" x="134.7236" y="51.5405">a</tspan><tspan class="cls-29" x="146.3838" y="51.5405">r</tspan><tspan class="cls-19" x="151.668" y="51.5405">t</tspan><tspan x="157.5088" y="51.5405">s.</tspan></text><text class="cls-30" transform="translate(261.791 142.9931)">20 <tspan class="cls-31" x="45.8516" y="0">J</tspan><tspan x="61.9639" y="0">une 2021</tspan></text><text class="cls-32" transform="translate(360.8438 173.5047)">16:00 IST</text><text class="cls-1" transform="translate(579.8561 312.6046)">Regi<tspan class="cls-2" x="66.2773" y="0">s</tspan><tspan x="81.1211" y="0">t</tspan><tspan class="cls-3" x="93.7783" y="0">r</tspan><tspan class="cls-4" x="105.457" y="0">a</tspan><tspan x="122.3721" y="0">tion </tspan><tspan class="cls-3" x="188.0742" y="0">E</tspan><tspan x="206.7432" y="0">nded</tspan></text><text class="cls-7" transform="translate(580.6963 351.9126)">I<tspan class="cls-19" x="3.3555" y="0">t</tspan><tspan class="cls-11" x="9.1963" y="0">s t</tspan><tspan class="cls-8" x="30.3564" y="0">i</tspan><tspan x="34.7402" y="0">me </tspan><tspan class="cls-12" x="68.3057" y="0">t</tspan><tspan x="73.8213" y="0">o t</tspan><tspan class="cls-33" x="96.6699" y="0">u</tspan><tspan class="cls-25" x="107.4805" y="0">r</tspan><tspan x="112.8701" y="0">n </tspan><tspan class="cls-33" x="128.4424" y="0">u</tspan><tspan class="cls-13" x="139.2529" y="0">p the heat.</tspan></text><text class="cls-30" transform="translate(260.3128 309.0352)">28 <tspan class="cls-34" x="44.3145" y="0">J</tspan><tspan class="cls-35" x="60.4263" y="0">une 2021</tspan></text><text class="cls-32" transform="translate(362.3219 335.3845)">16:00 IST</text><text class="cls-1" transform="translate(579.8561 612.486)"><tspan class="cls-36">P</tspan><tspan x="19.2734" y="0">op</tspan><tspan class="cls-37" x="57.1006" y="0">c</tspan><tspan class="cls-38" x="73.584" y="0">orn Begins</tspan></text><text class="cls-7" transform="translate(580.6963 651.7939)">D<tspan class="cls-17" x="12.9609" y="0">e</tspan><tspan class="cls-39" x="22.8486" y="0">v</tspan><tspan x="32.2441" y="0">elop</tspan><tspan class="cls-8" x="68.8818" y="0">i</tspan><tspan class="cls-11" x="73.2656" y="0">ng t</tspan><tspan class="cls-8" x="106.3584" y="0">i</tspan><tspan x="110.7422" y="0">me - </tspan><tspan class="cls-40" x="156.5967" y="0">P</tspan><tspan class="cls-13" x="166.3799" y="0">op</tspan><tspan class="cls-41" x="188.5684" y="0">c</tspan><tspan class="cls-13" x="197.9004" y="0">o</tspan><tspan class="cls-25" x="208.9951" y="0">r</tspan><tspan x="214.3848" y="0">n t</tspan><tspan class="cls-8" x="236.3838" y="0">i</tspan><tspan x="240.7676" y="0">me</tspan></text><text class="cls-30" transform="translate(291.9654 608.399)">2 <tspan class="cls-34" x="25.5127" y="0">J</tspan><tspan x="41.6245" y="0">uly 2021</tspan></text><text class="cls-32" transform="translate(362.3219 635.2659)">16:00 IST</text><text class="cls-1" transform="translate(579.3386 718.0095)"><tspan class="cls-36">P</tspan><tspan x="19.2734" y="0">op</tspan><tspan class="cls-37" x="57.1006" y="0">c</tspan><tspan class="cls-38" x="73.584" y="0">orn </tspan><tspan class="cls-3" x="130.0527" y="0">E</tspan><tspan x="148.7217" y="0">nds</tspan></text><text class="cls-7" transform="translate(580.6963 757.8349)">S<tspan class="cls-42" x="12.1641" y="0">u</tspan><tspan x="22.9541" y="0">bmit yo</tspan><tspan class="cls-33" x="87.9141" y="0">u</tspan><tspan x="98.7246" y="0">r b</tspan><tspan class="cls-43" x="121.2695" y="0">o</tspan><tspan class="cls-44" x="131.1582" y="0">w</tspan><tspan x="146.6348" y="0">ls </tspan><tspan class="cls-45" x="164.7236" y="0">o</tspan><tspan class="cls-13" x="174.8105" y="0">f </tspan><tspan class="cls-41" x="187.751" y="0">c</tspan><tspan x="197.083" y="0">ode </tspan><tspan class="cls-16" x="235.6924" y="0">a</tspan><tspan x="247.3525" y="0">nd ideas</tspan></text><text class="cls-30" transform="translate(291.4548 714.44)">4 <tspan class="cls-31" x="25.0098" y="0">J</tspan><tspan x="41.1221" y="0">uly 2021</tspan></text><text class="cls-32" transform="translate(357.6732 742.7565)">22:00 IST</text><text class="cls-32" transform="translate(361.4239 473.4061)">16:00 IST</text><text class="cls-32" transform="translate(361.4239 501.9535)">16:00 IST</text><text class="cls-32" transform="translate(361.4239 532.5576)">16:00 IST</text><text class="cls-32" transform="translate(242.5995 473.4061)">16:00 IST</text><text class="cls-32" transform="translate(242.5995 501.9535)">16:00 IST</text><text class="cls-32" transform="translate(242.5995 532.5576)">16:00 IST</text><text class="cls-1" transform="translate(579.8561 430.6554)">Session<tspan class="cls-46" x="111.498" y="0">-</tspan><tspan x="124.9316" y="0">1</tspan></text><text class="cls-7" transform="translate(580.6963 469.9634)">N<tspan class="cls-16" x="11.5449" y="0">a</tspan><tspan x="23.2051" y="0">me-desi</tspan><tspan class="cls-16" x="93.5762" y="0">g</tspan><tspan x="105.2363" y="0">nation</tspan></text><text class="cls-7" transform="translate(580.6963 530.2382)">N<tspan class="cls-16" x="11.5449" y="0">a</tspan><tspan x="23.2051" y="0">me-desi</tspan><tspan class="cls-16" x="93.5762" y="0">g</tspan><tspan x="105.2363" y="0">nation</tspan></text><text class="cls-7" transform="translate(579.2577 498.612)">N<tspan class="cls-16" x="11.5449" y="0">a</tspan><tspan x="23.2051" y="0">me-des</tspan><tspan class="cls-47" x="90.001" y="0">g</tspan><tspan class="cls-48" x="101.6924" y="0">i</tspan><tspan x="106.0752" y="0">nation</tspan></text><text class="cls-30" transform="translate(297.0787 423.0009)">1 <tspan class="cls-34" x="19.3638" y="0">J</tspan><tspan x="35.4756" y="0">uly 2021</tspan></text><text class="cls-49" transform="translate(345.2564 468.2172)">-</text><text class="cls-49" transform="translate(346.1202 499.2546)">-</text><text class="cls-49" transform="translate(346.1202 529.6204)">-</text><text class="cls-32" transform="translate(361.4239 867.0634)">16:00 IST</text><text class="cls-32" transform="translate(361.4239 895.6107)">16:00 IST</text><text class="cls-32" transform="translate(361.4239 926.2148)">16:00 IST</text><text class="cls-32" transform="translate(242.5995 867.0634)">16:00 IST</text><text class="cls-32" transform="translate(242.5995 895.6107)">16:00 IST</text><text class="cls-32" transform="translate(242.5995 926.2148)">16:00 IST</text><text class="cls-1" transform="translate(578.2227 822.6793)">Session<tspan class="cls-50" x="111.498" y="0">-</tspan><tspan x="125.1621" y="0">2</tspan></text><text class="cls-7" transform="translate(580.6963 863.6207)">N<tspan class="cls-16" x="11.5449" y="0">a</tspan><tspan x="23.2051" y="0">me-desi</tspan><tspan class="cls-16" x="93.5762" y="0">g</tspan><tspan x="105.2363" y="0">nation</tspan></text><text class="cls-7" transform="translate(580.6963 923.8954)">N<tspan class="cls-16" x="11.5449" y="0">a</tspan><tspan x="23.2051" y="0">me-desi</tspan><tspan class="cls-16" x="93.5762" y="0">g</tspan><tspan x="105.2363" y="0">nation</tspan></text><text class="cls-7" transform="translate(579.2577 892.2692)">N<tspan class="cls-16" x="11.5449" y="0">a</tspan><tspan x="23.2051" y="0">me-des</tspan><tspan class="cls-47" x="90.001" y="0">g</tspan><tspan class="cls-48" x="101.6924" y="0">i</tspan><tspan x="106.0752" y="0">nation</tspan></text><text class="cls-30" transform="translate(293.4433 828.2594)">5 <tspan class="cls-31" x="25.2168" y="0">J</tspan><tspan x="41.3291" y="0">uly 2021</tspan></text><text class="cls-49" transform="translate(345.2564 861.8745)">-</text><text class="cls-49" transform="translate(346.1202 892.9118)">-</text><text class="cls-49" transform="translate(346.1202 923.2776)">-</text></svg>