<svg id="Layer_2" data-name="Layer 2" xmlns="http://www.w3.org/2000/svg" viewBox="0 0 512 512"><defs><style>.cls-1{fill:#fdbd11;}</style></defs><path class="cls-1" d="M219.255,303.1a4.522,4.522,0,0,1-2.937-1.083l-29.358-25a4.538,4.538,0,0,1,0-6.909l29.358-25a4.536,4.536,0,1,1,5.881,6.907l-25.3,21.545,25.3,21.546a4.537,4.537,0,0,1-2.944,7.992Z"/><path class="cls-1" d="M277.212,303.1a4.538,4.538,0,0,1-2.944-7.992l25.3-21.546-25.3-21.545a4.536,4.536,0,0,1,5.881-6.907l29.359,25a4.538,4.538,0,0,1,0,6.909l-29.359,25A4.522,4.522,0,0,1,277.212,303.1Z"/><path class="cls-1" d="M237.841,321.852a4.6,4.6,0,0,1-.942-.1,4.538,4.538,0,0,1-3.5-5.375l18.3-86.873a4.537,4.537,0,1,1,8.879,1.871l-18.3,86.873A4.538,4.538,0,0,1,237.841,321.852Z"/><path class="cls-1" d="M355.176,369.181H141.292a30.5,30.5,0,0,1-30.463-30.463V157.185a30.5,30.5,0,0,1,30.463-30.462H355.176a30.5,30.5,0,0,1,30.462,30.462V338.718A30.5,30.5,0,0,1,355.176,369.181ZM141.292,135.8A21.414,21.414,0,0,0,119.9,157.185V338.718a21.414,21.414,0,0,0,21.389,21.389H355.176a21.414,21.414,0,0,0,21.388-21.389V157.185A21.413,21.413,0,0,0,355.176,135.8Z"/><path class="cls-1" d="M381.1,199.372H115.366a4.537,4.537,0,0,1,0-9.074H381.1a4.537,4.537,0,0,1,0,9.074Z"/><path class="cls-1" d="M188.347,177.662a14.358,14.358,0,1,1,14.358-14.357A14.377,14.377,0,0,1,188.347,177.662Zm0-19.641a5.284,5.284,0,1,0,5.284,5.284A5.291,5.291,0,0,0,188.347,158.021Z"/><path class="cls-1" d="M144.234,177.523a14.358,14.358,0,1,1,14.357-14.358A14.374,14.374,0,0,1,144.234,177.523Zm0-19.642a5.284,5.284,0,1,0,5.283,5.284A5.293,5.293,0,0,0,144.234,157.881Z"/><path class="cls-1" d="M232.461,177.8a14.357,14.357,0,1,1,14.357-14.358A14.373,14.373,0,0,1,232.461,177.8Zm0-19.642a5.284,5.284,0,1,0,5.284,5.284A5.289,5.289,0,0,0,232.461,158.157Z"/></svg>